<mxfile host="app.diagrams.net" modified="2023-05-06T07:25:11.092Z" agent="Mozilla/5.0 (Windows NT 10.0; Win64; x64) AppleWebKit/537.36 (KHTML, like Gecko) Chrome/110.0.0.0 YaBrowser/23.3.3.719 Yowser/2.5 Safari/537.36" etag="DWlS5z47WXfh4xw3gudv" version="21.2.9" type="device">
  <diagram name="Страница 1" id="h6M9x_unm0Hw5WjnLuYx">
    <mxGraphModel dx="1180" dy="617" grid="1" gridSize="10" guides="1" tooltips="1" connect="1" arrows="1" fold="1" page="1" pageScale="1" pageWidth="827" pageHeight="1169" math="0" shadow="0">
      <root>
        <mxCell id="0" />
        <mxCell id="1" parent="0" />
        <mxCell id="26XyOTbJn3KY2433N-xs-9" value="&amp;nbsp;Employee_Information" style="swimlane;whiteSpace=wrap;html=1;" parent="1" vertex="1">
          <mxGeometry x="280" y="120" width="200" height="230" as="geometry" />
        </mxCell>
        <mxCell id="26XyOTbJn3KY2433N-xs-11" value="Last_name" style="text;html=1;align=center;verticalAlign=middle;resizable=0;points=[];autosize=1;strokeColor=none;fillColor=none;" parent="26XyOTbJn3KY2433N-xs-9" vertex="1">
          <mxGeometry x="10" y="68" width="80" height="30" as="geometry" />
        </mxCell>
        <mxCell id="26XyOTbJn3KY2433N-xs-12" value="Middle_name" style="text;html=1;align=center;verticalAlign=middle;resizable=0;points=[];autosize=1;strokeColor=none;fillColor=none;" parent="26XyOTbJn3KY2433N-xs-9" vertex="1">
          <mxGeometry x="5" y="98" width="100" height="30" as="geometry" />
        </mxCell>
        <mxCell id="26XyOTbJn3KY2433N-xs-13" value="Employee" style="text;html=1;align=center;verticalAlign=middle;resizable=0;points=[];autosize=1;strokeColor=none;fillColor=none;" parent="26XyOTbJn3KY2433N-xs-9" vertex="1">
          <mxGeometry x="5" y="128" width="80" height="30" as="geometry" />
        </mxCell>
        <mxCell id="26XyOTbJn3KY2433N-xs-14" value="Position" style="text;html=1;align=center;verticalAlign=middle;resizable=0;points=[];autosize=1;strokeColor=none;fillColor=none;" parent="26XyOTbJn3KY2433N-xs-9" vertex="1">
          <mxGeometry x="5" y="158" width="70" height="30" as="geometry" />
        </mxCell>
        <mxCell id="26XyOTbJn3KY2433N-xs-15" value="Date_and_Time_of_Arrival" style="text;html=1;align=center;verticalAlign=middle;resizable=0;points=[];autosize=1;strokeColor=none;fillColor=none;" parent="26XyOTbJn3KY2433N-xs-9" vertex="1">
          <mxGeometry x="5" y="178" width="170" height="30" as="geometry" />
        </mxCell>
        <mxCell id="26XyOTbJn3KY2433N-xs-16" value="Date_and_Time_of_Departure" style="text;html=1;align=center;verticalAlign=middle;resizable=0;points=[];autosize=1;strokeColor=none;fillColor=none;" parent="26XyOTbJn3KY2433N-xs-9" vertex="1">
          <mxGeometry x="5" y="200" width="190" height="30" as="geometry" />
        </mxCell>
        <mxCell id="26XyOTbJn3KY2433N-xs-10" value="First_name&amp;nbsp;" style="text;html=1;align=center;verticalAlign=middle;resizable=0;points=[];autosize=1;strokeColor=none;fillColor=none;" parent="1" vertex="1">
          <mxGeometry x="285" y="158" width="90" height="30" as="geometry" />
        </mxCell>
        <mxCell id="26XyOTbJn3KY2433N-xs-17" value="List&amp;lt;Jurnal&amp;gt;" style="swimlane;whiteSpace=wrap;html=1;" parent="1" vertex="1">
          <mxGeometry x="630" width="210" height="117" as="geometry" />
        </mxCell>
        <mxCell id="26XyOTbJn3KY2433N-xs-18" value="Хранения информации о каждом&lt;br&gt;&amp;nbsp;посещении сотрудником работы." style="text;html=1;align=center;verticalAlign=middle;resizable=0;points=[];autosize=1;strokeColor=none;fillColor=none;" parent="26XyOTbJn3KY2433N-xs-17" vertex="1">
          <mxGeometry y="47" width="210" height="40" as="geometry" />
        </mxCell>
        <mxCell id="26XyOTbJn3KY2433N-xs-23" value="new Jurnal" style="swimlane;whiteSpace=wrap;html=1;" parent="1" vertex="1">
          <mxGeometry x="630" y="147" width="210" height="100" as="geometry" />
        </mxCell>
        <mxCell id="26XyOTbJn3KY2433N-xs-24" value="Заполнение коллекции &lt;br&gt;объектами класса Журнал " style="text;html=1;align=center;verticalAlign=middle;resizable=0;points=[];autosize=1;strokeColor=none;fillColor=none;" parent="26XyOTbJn3KY2433N-xs-23" vertex="1">
          <mxGeometry x="15" y="38" width="170" height="40" as="geometry" />
        </mxCell>
        <mxCell id="26XyOTbJn3KY2433N-xs-25" value="&lt;div style=&quot;text-align: left;&quot;&gt;&lt;span style=&quot;background-color: initial;&quot;&gt;IComparable&amp;lt;T&amp;gt;&lt;/span&gt;&lt;/div&gt;" style="swimlane;whiteSpace=wrap;html=1;" parent="1" vertex="1">
          <mxGeometry x="630" y="279" width="210" height="100" as="geometry" />
        </mxCell>
        <mxCell id="26XyOTbJn3KY2433N-xs-26" value="Реализация интерфейса &lt;br&gt;для сортировки коллекции &lt;br&gt;по каждому полю." style="text;html=1;align=center;verticalAlign=middle;resizable=0;points=[];autosize=1;strokeColor=none;fillColor=none;" parent="26XyOTbJn3KY2433N-xs-25" vertex="1">
          <mxGeometry x="15" y="30" width="170" height="60" as="geometry" />
        </mxCell>
        <mxCell id="26XyOTbJn3KY2433N-xs-27" value="Jurnal.Sort();" style="swimlane;whiteSpace=wrap;html=1;" parent="1" vertex="1">
          <mxGeometry x="630" y="419" width="200" height="100" as="geometry" />
        </mxCell>
        <mxCell id="26XyOTbJn3KY2433N-xs-28" value="Сортировка коллекции объектов&lt;br&gt;&amp;nbsp;по каждому полю и вывод &lt;br&gt;отсортированных&lt;br&gt;&amp;nbsp;списков в табличном виде. " style="text;html=1;align=center;verticalAlign=middle;resizable=0;points=[];autosize=1;strokeColor=none;fillColor=none;" parent="26XyOTbJn3KY2433N-xs-27" vertex="1">
          <mxGeometry x="-10" y="31" width="210" height="70" as="geometry" />
        </mxCell>
        <mxCell id="26XyOTbJn3KY2433N-xs-29" value="" style="endArrow=classic;startArrow=classic;html=1;rounded=0;entryX=0;entryY=0.3;entryDx=0;entryDy=0;entryPerimeter=0;" parent="1" target="26XyOTbJn3KY2433N-xs-18" edge="1">
          <mxGeometry width="50" height="50" relative="1" as="geometry">
            <mxPoint x="480" y="160" as="sourcePoint" />
            <mxPoint x="530" y="110" as="targetPoint" />
          </mxGeometry>
        </mxCell>
        <mxCell id="26XyOTbJn3KY2433N-xs-30" value="" style="endArrow=classic;startArrow=classic;html=1;rounded=0;" parent="1" edge="1">
          <mxGeometry width="50" height="50" relative="1" as="geometry">
            <mxPoint x="480" y="200" as="sourcePoint" />
            <mxPoint x="630" y="210" as="targetPoint" />
          </mxGeometry>
        </mxCell>
        <mxCell id="26XyOTbJn3KY2433N-xs-31" value="" style="endArrow=classic;startArrow=classic;html=1;rounded=0;exitX=1;exitY=0.5;exitDx=0;exitDy=0;entryX=0;entryY=0.25;entryDx=0;entryDy=0;" parent="1" source="26XyOTbJn3KY2433N-xs-9" target="26XyOTbJn3KY2433N-xs-25" edge="1">
          <mxGeometry width="50" height="50" relative="1" as="geometry">
            <mxPoint x="490" y="210" as="sourcePoint" />
            <mxPoint x="600" y="230" as="targetPoint" />
          </mxGeometry>
        </mxCell>
        <mxCell id="26XyOTbJn3KY2433N-xs-32" value="" style="endArrow=classic;startArrow=classic;html=1;rounded=0;exitX=1;exitY=0.75;exitDx=0;exitDy=0;entryX=0;entryY=0;entryDx=0;entryDy=0;" parent="1" source="26XyOTbJn3KY2433N-xs-9" target="26XyOTbJn3KY2433N-xs-27" edge="1">
          <mxGeometry width="50" height="50" relative="1" as="geometry">
            <mxPoint x="490" y="245" as="sourcePoint" />
            <mxPoint x="600" y="355" as="targetPoint" />
          </mxGeometry>
        </mxCell>
        <mxCell id="26XyOTbJn3KY2433N-xs-33" value="" style="endArrow=classic;startArrow=classic;html=1;rounded=0;exitX=1.008;exitY=0.71;exitDx=0;exitDy=0;exitPerimeter=0;" parent="1" source="26XyOTbJn3KY2433N-xs-18" target="26XyOTbJn3KY2433N-xs-37" edge="1">
          <mxGeometry width="50" height="50" relative="1" as="geometry">
            <mxPoint x="880" y="170" as="sourcePoint" />
            <mxPoint x="1030" y="69" as="targetPoint" />
          </mxGeometry>
        </mxCell>
        <mxCell id="26XyOTbJn3KY2433N-xs-34" value="" style="endArrow=classic;startArrow=classic;html=1;rounded=0;exitX=1;exitY=0.5;exitDx=0;exitDy=0;entryX=0;entryY=0.5;entryDx=0;entryDy=0;" parent="1" source="26XyOTbJn3KY2433N-xs-23" target="26XyOTbJn3KY2433N-xs-37" edge="1">
          <mxGeometry width="50" height="50" relative="1" as="geometry">
            <mxPoint x="880" y="210" as="sourcePoint" />
            <mxPoint x="1030" y="220" as="targetPoint" />
          </mxGeometry>
        </mxCell>
        <mxCell id="26XyOTbJn3KY2433N-xs-35" value="" style="endArrow=classic;startArrow=classic;html=1;rounded=0;exitX=1;exitY=0.5;exitDx=0;exitDy=0;entryX=0;entryY=0.75;entryDx=0;entryDy=0;" parent="1" source="26XyOTbJn3KY2433N-xs-25" target="26XyOTbJn3KY2433N-xs-37" edge="1">
          <mxGeometry width="50" height="50" relative="1" as="geometry">
            <mxPoint x="880" y="245" as="sourcePoint" />
            <mxPoint x="1100" y="250" as="targetPoint" />
          </mxGeometry>
        </mxCell>
        <mxCell id="26XyOTbJn3KY2433N-xs-36" value="" style="endArrow=classic;startArrow=classic;html=1;rounded=0;exitX=1;exitY=0.25;exitDx=0;exitDy=0;entryX=0;entryY=1;entryDx=0;entryDy=0;" parent="1" source="26XyOTbJn3KY2433N-xs-27" target="26XyOTbJn3KY2433N-xs-37" edge="1">
          <mxGeometry width="50" height="50" relative="1" as="geometry">
            <mxPoint x="880" y="303" as="sourcePoint" />
            <mxPoint x="1100" y="300" as="targetPoint" />
          </mxGeometry>
        </mxCell>
        <mxCell id="26XyOTbJn3KY2433N-xs-37" value="Program" style="swimlane;whiteSpace=wrap;html=1;startSize=23;" parent="1" vertex="1">
          <mxGeometry x="1050" y="117" width="200" height="113" as="geometry" />
        </mxCell>
        <mxCell id="26XyOTbJn3KY2433N-xs-38" value="Главный файл со всей логикой" style="text;html=1;align=center;verticalAlign=middle;resizable=0;points=[];autosize=1;strokeColor=none;fillColor=none;" parent="26XyOTbJn3KY2433N-xs-37" vertex="1">
          <mxGeometry y="63" width="200" height="30" as="geometry" />
        </mxCell>
      </root>
    </mxGraphModel>
  </diagram>
</mxfile>
